<?xml version="1.0" standalone="no"?>
<!DOCTYPE svg PUBLIC "-//W3C//DTD SVG 1.1//EN" "http://www.w3.org/Graphics/SVG/1.1/DTD/svg11.dtd" >
<!--
2013-9-30: Created.
-->
<svg>
<metadata>
Created by iconfont
</metadata>
<defs>

<font id="iconfont" horiz-adv-x="1024" >
  <font-face
    font-family="iconfont"
    font-weight="500"
    font-stretch="normal"
    units-per-em="1024"
    ascent="896"
    descent="-128"
  />
    <missing-glyph />
    
    <glyph glyph-name="tixing" unicode="&#58936;" d="M290.930879 324.237743h-193.609973a96.332767 96.332767 0 0 1-96.962393-104.570373v-250.486182a90.246383 90.246383 0 0 1 96.962393-96.909924h258.1991a98.01177 98.01177 0 0 1 96.962393 96.962393v258.146631a90.141446 90.141446 0 0 1-96.962393 96.857455H290.930879z m330.553613 0a96.332767 96.332767 0 0 1-104.622842-96.857455v-258.1991c0-67.317506 39.876309-96.909924 104.517904-96.909924h250.538651a90.141446 90.141446 0 0 1 96.804987 96.962393v258.146631a90.036508 90.036508 0 0 1-96.804987 96.857455h-250.433713zM97.425844 840.793349A90.141446 90.141446 0 0 1 0.463451 743.935894v-258.251569a90.088977 90.088977 0 0 1 96.962393-96.804986h258.199099a90.141446 90.141446 0 0 1 96.962393 96.804986V743.935894a90.193914 90.193914 0 0 1-96.962393 96.857455H97.425844zM848.88439 395.385473a88.829725 88.829725 0 0 0-128.496158 0l-171.468128 171.258253a90.298852 90.298852 0 0 0 5.246882 133.585635l166.326183 166.168776a84.57975 84.57975 0 0 0 128.548627 0l171.205784-171.258253a84.57975 84.57975 0 0 0 0-128.443689l-171.205784-171.258253z"  horiz-adv-x="1050" />

    
    <glyph glyph-name="shuaxinzhongjieban" unicode="&#58992;" d="M19.2 467.2C25.6 467.2 25.6 467.2 19.2 467.2c19.2 0 25.6 6.4 32 19.2C102.4 697.6 294.4 844.8 512 844.8c140.8 0 275.2-64 364.8-172.8l-89.6-44.8L960 512c12.8-12.8 38.4 0 38.4 19.2l12.8 204.8-89.6-44.8C825.6 819.2 672 896 512 896 268.8 896 57.6 729.6 0 499.2 0 480 6.4 467.2 19.2 467.2zM1004.8 300.8c-12.8 6.4-25.6-6.4-32-19.2-51.2-211.2-243.2-364.8-460.8-364.8-140.8 0-275.2 64-364.8 172.8l89.6 44.8L64 256c-12.8 12.8-38.4 0-38.4-19.2l-12.8-204.8 89.6 44.8C198.4-51.2 352-128 512-128c243.2 0 454.4 166.4 512 396.8C1024 288 1017.6 300.8 1004.8 300.8z"  horiz-adv-x="1024" />

    
    <glyph glyph-name="yangguangchufang-01" unicode="&#58924;" d="M842.24 141.824h-660.48a52.053333 52.053333 0 0 0 0 103.936h660.48a52.053333 52.053333 0 0 0 0-103.936z m48.64 202.24a51.2 51.2 0 0 0-48.64-51.2h-660.48a52.053333 52.053333 0 0 0 0 103.936A6.144 6.144 0 0 1 187.733333 401.066667c7.68 109.056 94.037333 238.933333 233.301334 280.405333a107.349333 107.349333 0 0 0-4.949334 32.426667 99.328 99.328 0 0 0 95.914667 102.4 99.328 99.328 0 0 0 95.914667-102.4 104.618667 104.618667 0 0 0-4.949334-32.426667C742.229333 641.365333 828.586667 510.976 836.266667 401.066667a5.973333 5.973333 0 0 1 5.973333-5.973334 51.2 51.2 0 0 0 48.64-51.029333zM452.437333 608.768a17.066667 17.066667 0 0 1-19.797333 14.165333 199.509333 199.509333 0 0 1-89.088-46.250666 224.085333 224.085333 0 0 1-61.44-81.578667 18.944 18.944 0 0 1 8.874667-24.234667 17.066667 17.066667 0 0 1 6.826666-1.536 17.066667 17.066667 0 0 1 15.701334 10.922667c20.138667 48.981333 77.312 97.792 125.098666 106.496a18.432 18.432 0 0 1 13.824 22.016z m112.64 105.984a53.248 53.248 0 1 1-106.154666 0 60.245333 60.245333 0 0 1 4.608-23.552 329.557333 329.557333 0 0 0 96.938666 0 60.245333 60.245333 0 0 1 4.608 23.04z"  horiz-adv-x="1024" />

    
    <glyph glyph-name="shuzidangan-01" unicode="&#58925;" d="M876.032 705.706667v-115.882667a29.525333 29.525333 0 0 0-28.842667-29.013333H151.893333a27.306667 27.306667 0 0 0-20.309333 8.704 26.965333 26.965333 0 0 0-8.533333 20.309333v115.882667A29.184 29.184 0 0 0 151.893333 734.549333h695.296a29.184 29.184 0 0 0 28.842667-28.842666zM847.189333 503.466667v-435.2a29.525333 29.525333 0 0 0-29.013333-28.842667H180.906667a27.477333 27.477333 0 0 0-20.309334 8.533333 28.501333 28.501333 0 0 0-8.533333 20.309334V503.466667a29.184 29.184 0 0 0 28.842667 28.842666H819.2a27.818667 27.818667 0 0 0 20.309333-8.533333 28.842667 28.842667 0 0 0 7.68-20.309333z m-269.312-107.861334a28.16 28.16 0 0 1 8.533334 20.309334 29.184 29.184 0 0 1-29.013334 28.842666h-115.882666a27.136 27.136 0 0 1-20.309334-8.533333 28.501333 28.501333 0 0 1-8.533333-20.309333 27.136 27.136 0 0 1 8.533333-20.309334 27.818667 27.818667 0 0 1 20.309334-8.533333h115.882666a27.818667 27.818667 0 0 1 20.48 8.533333z"  horiz-adv-x="1024" />

    
    <glyph glyph-name="shipinanquan-01" unicode="&#58927;" d="M887.466667 744.106667v-441.002667a182.442667 182.442667 0 0 0-18.773334-79.018667 373.077333 373.077333 0 0 0-49.493333-76.117333 537.770667 537.770667 0 0 0-69.632-69.802667 741.376 741.376 0 0 0-79.36-58.709333 624.128 624.128 0 0 0-78.336-43.008 365.909333 365.909333 0 0 0-66.56-23.381333l-9.045333-1.536-8.362667 1.536a372.053333 372.053333 0 0 0-68.266667 23.381333A656.384 656.384 0 0 0 358.4 19.456a750.933333 750.933333 0 0 0-82.090667 58.709333A569.514667 569.514667 0 0 0 204.8 147.968a376.832 376.832 0 0 0-51.2 76.117333 176.64 176.64 0 0 0-19.626667 79.018667V744.106667l30.890667 4.778666 346.282667 68.266667 353.109333-68.266667L887.466667 744.106667z m-375.466667 9.216h-4.266667l-297.984-52.394667v-278.357333H512V753.322667z m298.837333-330.752H512V25.6a402.090667 402.090667 0 0 1 62.805333 21.333333 563.2 563.2 0 0 1 67.072 34.133334 594.432 594.432 0 0 1 63.829334 43.690666 401.066667 401.066667 0 0 1 54.272 51.2 256 256 0 0 1 37.546666 57.173334 139.093333 139.093333 0 0 1 14.165334 60.245333v129.194667z"  horiz-adv-x="1024" />

    
    <glyph glyph-name="wenjianshenpi-01" unicode="&#58929;" d="M358.4 315.733333a40.96 40.96 0 0 1 41.130667 40.96v6.826667a45.226667 45.226667 0 0 1-4.266667 18.944A228.181333 228.181333 0 0 0 266.410667 588.8a224.938667 224.938667 0 0 0 221.866666 227.84A224.938667 224.938667 0 0 0 710.656 588.8a228.352 228.352 0 0 0-129.024-206.848 45.226667 45.226667 0 0 1-4.266667-18.944v-6.485333a40.96 40.96 0 0 1 40.96-40.96h111.786667a113.834667 113.834667 0 0 0 113.834667-114.005334v-69.461333a44.202667 44.202667 0 0 0-44.373334-44.373333H177.493333a44.202667 44.202667 0 0 0-44.373333 44.373333v69.973333A113.834667 113.834667 0 0 0 246.954667 315.733333zM223.061333 42.666667h530.944a45.738667 45.738667 0 0 0 45.568-45.568v-1.194667a44.544 44.544 0 0 0-44.373333-44.373333H221.866667a44.544 44.544 0 0 0-44.373334 44.373333v1.194667A45.738667 45.738667 0 0 0 223.061333 42.666667zM360.789333 605.866667a25.429333 25.429333 0 0 0-49.152 13.141333A183.808 183.808 0 0 0 416.597333 742.4a25.429333 25.429333 0 1 0 21.674667-45.909333A133.461333 133.461333 0 0 1 360.789333 605.866667z"  horiz-adv-x="1024" />

    
    <glyph glyph-name="kebiaotongji-01" unicode="&#58930;" d="M264.192 98.816A43.008 43.008 0 0 0 221.866667 54.101333h-46.08a43.008 43.008 0 0 0-42.837334 44.714667v40.96h131.754667v-40.96zM132.437333 541.354667h131.754667v-356.864H132.437333zM264.192 587.946667l-131.754667-1.365334v46.08a43.008 43.008 0 0 0 42.837334 44.714667H221.866667a43.178667 43.178667 0 0 0 42.837333-44.714667v-44.714666zM489.472 98.816a44.714667 44.714667 0 0 0-44.714667-44.714667h-92.16a41.642667 41.642667 0 0 0-40.96 44.714667v40.448h177.834667zM489.472 185.856H311.637333V632.149333h177.834667zM489.472 676.352l-177.834667 1.365333v46.592a41.642667 41.642667 0 0 0 40.96 44.714667h92.16a44.714667 44.714667 0 0 0 44.714667-44.714667v-47.957333zM757.589333 97.450667a44.714667 44.714667 0 0 0-44.714666-44.714667h-134.997334a44.714667 44.714667 0 0 0-44.714666 44.714667V632.149333a44.714667 44.714667 0 0 0 44.714666 44.714667h134.997334a44.714667 44.714667 0 0 0 44.714666-44.714667zM891.562667 97.450667a42.325333 42.325333 0 0 0-41.813334-44.714667h-6.997333A39.424 39.424 0 0 0 802.133333 95.573333v88.405334l88.917334 1.877333v-88.405333zM891.562667 232.789333L802.133333 230.4v131.754667h88.917334zM891.562667 409.770667H802.133333v87.893333a42.666667 42.666667 0 0 0 40.106667 46.592h6.997333a42.325333 42.325333 0 0 0 41.813334-44.714667z"  horiz-adv-x="1024" />

    
    <glyph glyph-name="jiankangshanshi-01" unicode="&#58931;" d="M512 574.293333a37.205333 37.205333 0 0 1 39.424 34.133334V782.506667a39.765333 39.765333 0 0 1-78.848 0v-173.397334a32.426667 32.426667 0 0 1 9.728-23.04 41.984 41.984 0 0 1 29.696-11.776z m119.466667-26.282666a37.376 37.376 0 0 1 39.424 34.133333v139.264a39.936 39.936 0 0 1-79.018667 0v-138.752a37.376 37.376 0 0 1 38.570667-34.645333z m-237.226667 0a37.205333 37.205333 0 0 1 39.424 34.133333v139.264a32.426667 32.426667 0 0 1-9.728 23.04A42.496 42.496 0 0 1 392.533333 756.053333a37.205333 37.205333 0 0 1-39.594666-34.133333v-138.752A37.546667 37.546667 0 0 1 392.533333 548.010667z m490.154667-227.328a17.066667 17.066667 0 0 1-14.848 6.485333l-61.781334-4.437333a214.186667 214.186667 0 0 1 37.034667 121.002666v134.314667a17.066667 17.066667 0 0 1-23.893333 16.213333l-148.48-59.392a201.557333 201.557333 0 0 1-121.173334-138.752v110.933334a36.522667 36.522667 0 0 1-39.424 34.133333 42.496 42.496 0 0 1-30.037333-11.776 30.378667 30.378667 0 0 1-9.386667-21.845333v-110.933334a201.216 201.216 0 0 1-121.173333 138.581334l-148.650667 59.392a17.066667 17.066667 0 0 1-23.893333-16.213334v-134.485333a214.357333 214.357333 0 0 1 37.205333-121.002667L153.6 327.168a18.261333 18.261333 0 0 1-15.018667-6.656 18.090667 18.090667 0 0 1-2.901333-16.042667l40.618667-128.170666a214.016 214.016 0 0 1 189.098666-149.333334h16.896a114.346667 114.346667 0 0 1 89.429334 43.349334v-83.968a31.232 31.232 0 0 1 9.386666-22.016 42.666667 42.666667 0 0 1 30.037334-11.776 36.693333 36.693333 0 0 1 39.594666 34.133333v82.602667A114.346667 114.346667 0 0 1 640.682667 25.6h16.384a213.504 213.504 0 0 1 189.098666 149.333333L887.466667 304.469333a17.066667 17.066667 0 0 1-2.901334 16.213334zM257.706667 486.4l64-25.6a122.88 122.88 0 0 0 77.653333-114.517333 35.328 35.328 0 0 0-35.328-35.157334 34.133333 34.133333 0 0 0-12.970667 2.56l-7.850666 3.072a135.338667 135.338667 0 0 0-85.333334 126.293334z m136.533333-380.416a34.133333 34.133333 0 0 0-13.312-1.536h-8.362667a134.997333 134.997333 0 0 0-119.466666 94.378667L238.933333 241.664l68.266667-5.12a122.709333 122.709333 0 0 0 108.714667-85.333333 35.157333 35.157333 0 0 0-23.04-44.202667z m78.848 110.933333a204.8 204.8 0 0 1-34.133333 42.666667 114.005333 114.005333 0 0 1 31.744 44.373333l2.048 5.802667z m79.018667 0v93.525334c0-1.877333 1.365333-3.925333 2.218666-5.802667a110.592 110.592 0 0 1 31.744-44.373333 200.874667 200.874667 0 0 1-34.133333-42.666667z m150.528 243.882667l63.146666 25.6v-42.666667a135.338667 135.338667 0 0 0-85.333333-126.293333l-8.021333-3.072a34.133333 34.133333 0 0 0-12.970667-2.56 35.157333 35.157333 0 0 0-35.157333 35.157333 122.88 122.88 0 0 0 77.482666 114.517334z m69.802666-261.290667a135.509333 135.509333 0 0 0-119.466666-94.549333h-8.533334a34.133333 34.133333 0 0 0-13.141333 1.536 35.157333 35.157333 0 0 0-23.04 44.032 122.88 122.88 0 0 0 108.714667 85.333333l68.266666 5.12-12.970666-41.472z"  horiz-adv-x="1024" />

    
    <glyph glyph-name="jiankanghuanjing-01" unicode="&#58932;" d="M185.173333 279.04c36.693333 212.309333 132.949333 290.133333 246.784 322.730667C574.293333 640 699.733333 612.352 819.2 669.354667c72.362667 34.133333 69.973333-27.306667 68.266667-36.693334-17.066667-142.506667-93.696-276.48-253.952-341.333333-174.421333-69.290667-347.477333 60.074667-472.064-142.848a6.144 6.144 0 0 0-4.778667-2.389333h-15.36a5.290667 5.290667 0 0 0-4.778667 7.168 666.965333 666.965333 0 0 0 201.728 237.226666 971.776 971.776 0 0 0 277.504 137.557334c8.362667 2.389333 4.778667 15.530667-3.584 14.336a820.565333 820.565333 0 0 1-225.28-83.114667 672.597333 672.597333 0 0 1-201.728-180.224"  horiz-adv-x="1024" />

    
    <glyph glyph-name="xueyuandangan-01" unicode="&#58933;" d="M225.450667 748.202667a43.690667 43.690667 0 0 0 12.117333-37.717334v-647.509333a53.077333 53.077333 0 0 0-14.506667-37.376 53.077333 53.077333 0 0 0-37.376-14.677333A54.784 54.784 0 0 0 150.186667 25.6a49.493333 49.493333 0 0 0-17.066667 37.205333V710.485333a51.2 51.2 0 0 0 17.066667 35.669334 58.88 58.88 0 0 0 39.765333 16.213333 47.786667 47.786667 0 0 0 35.498667-14.165333z m634.197333-16.213334a102.4 102.4 0 0 0 30.378667-73.216v-548.864a103.765333 103.765333 0 0 0-103.594667-103.594666h-424.96A49.322667 49.322667 0 0 0 324.266667 20.48a54.613333 54.613333 0 0 0-14.677334 37.717333V710.485333A54.272 54.272 0 0 0 324.266667 748.202667a49.322667 49.322667 0 0 0 37.205333 14.165333h424.96a102.4 102.4 0 0 0 73.216-30.378667z m-110.933333-524.458666c4.608 6.144 3.413333 13.312-3.584 21.333333a97.792 97.792 0 0 1-32.426667 51.2 88.405333 88.405333 0 0 1-55.808 20.992h-10.581333a77.482667 77.482667 0 0 0-26.282667-12.117333 115.2 115.2 0 0 0-30.378667-4.096 97.109333 97.109333 0 0 0-28.672 4.096 143.189333 143.189333 0 0 0-27.989333 12.117333h-10.581333a88.405333 88.405333 0 0 1-55.808-20.992 98.816 98.816 0 0 1-32.426667-51.2 25.6 25.6 0 0 1 2.901333-21.333333 20.138667 20.138667 0 0 1 18.261334-9.386667h274.432a21.845333 21.845333 0 0 1 18.944 9.386667z m-231.424 307.2a101.034667 101.034667 0 0 1-31.232-73.728 116.736 116.736 0 0 1 31.232-80.042667 103.594667 103.594667 0 0 1 77.312-33.28 109.226667 109.226667 0 0 1 78.165333 30.72 112.810667 112.810667 0 0 1 0 155.477333 114.858667 114.858667 0 0 1-155.477333 0.853334z"  horiz-adv-x="1024" />

    
    <glyph glyph-name="xinxifabu-01" unicode="&#58934;" d="M780.8 685.397333H243.370667A110.592 110.592 0 0 1 133.12 575.146667v-266.410667a110.592 110.592 0 0 1 110.250667-110.250667h19.968a31.402667 31.402667 0 0 0 31.232-28.330666l7.168-74.581334a16.042667 16.042667 0 0 1 27.989333-9.216l54.272 60.074667a157.184 157.184 0 0 0 116.736 52.053333h279.893333a110.592 110.592 0 0 1 110.250667 110.250667V575.146667a110.421333 110.421333 0 0 1-110.08 110.250666zM533.845333 419.669333H290.133333a32.256 32.256 0 0 0 0 64.341334h243.712a32.256 32.256 0 0 0 0-64.341334z m199.850667 0H645.12a32.256 32.256 0 0 0 0 64.341334H733.866667a32.256 32.256 0 0 0 0-64.341334z"  horiz-adv-x="1024" />

    
    <glyph glyph-name="shiyongtongji-01" unicode="&#58935;" d="M843.434667 379.221333A356.352 356.352 0 1 0 487.253333 735.573333v-356.352zM890.88 426.837333H534.698667V783.018667A356.181333 356.181333 0 0 0 890.88 426.837333z"  horiz-adv-x="1024" />

    
    <glyph glyph-name="dianzibanpai-01" unicode="&#58937;" d="M254.122667 292.352h517.632a8.533333 8.533333 0 0 1 8.533333 8.362667V601.770667a8.533333 8.533333 0 0 1-8.533333 8.362666H254.122667a8.362667 8.362667 0 0 1-8.362667-8.362666v-301.056a8.362667 8.362667 0 0 1 8.362667-8.362667zM811.178667 126.122667h-107.690667a27.136 27.136 0 0 0 0 54.272h107.690667a27.136 27.136 0 0 0 0-54.272zM834.218667 722.090667H189.610667a56.661333 56.661333 0 0 1-56.490667-56.661334V128a56.661333 56.661333 0 0 1 56.490667-56.661333h644.608A56.661333 56.661333 0 0 1 890.709333 128V665.429333a56.661333 56.661333 0 0 1-56.490666 56.661334zM187.733333 259.925333V642.56a25.6 25.6 0 0 0 25.6 25.6h599.381334a25.6 25.6 0 0 0 25.6-25.6v-382.634667a25.770667 25.770667 0 0 0-25.6-25.6H213.333333a25.770667 25.770667 0 0 0-25.6 25.6z m650.581334-106.666666a27.136 27.136 0 0 0-27.136-27.136h-107.690667a27.136 27.136 0 1 0 0 54.101333h107.690667a27.136 27.136 0 0 0 27.136-26.965333z"  horiz-adv-x="1024" />

    
    <glyph glyph-name="banjiguanli-01" unicode="&#58938;" d="M707.413333 817.152h-397.653333a104.277333 104.277333 0 0 1-108.373333-99.84v-665.6a104.277333 104.277333 0 0 1 108.373333-99.84h397.653333a104.448 104.448 0 0 1 108.544 99.84v665.6a104.448 104.448 0 0 1-108.544 99.84z m-235.008-34.133333h72.362667a17.066667 17.066667 0 0 0 18.090667-17.066667 17.066667 17.066667 0 0 0-18.090667-17.066667h-72.362667a17.066667 17.066667 0 0 0-18.090666 17.066667 17.066667 17.066667 0 0 0 18.090666 17.92zM508.586667-8.533333a42.666667 42.666667 0 1 0 46.250666 42.666666A44.714667 44.714667 0 0 0 508.586667-8.533333z m235.008 142.506666a17.066667 17.066667 0 0 0-18.090667-17.066666H291.669333a17.066667 17.066667 0 0 0-18.090666 17.066666v566.613334a17.066667 17.066667 0 0 0 18.090666 17.066666h433.834667a17.066667 17.066667 0 0 0 18.090667-17.066666z"  horiz-adv-x="1024" />

    
    <glyph glyph-name="fangkeguanli-01" unicode="&#58939;" d="M134.656 671.402667a126.293333 126.293333 0 1 1 126.122667 126.293333 126.122667 126.122667 0 0 1-126.122667-126.293333zM431.786667 735.914667A63.658667 63.658667 0 1 1 494.933333 799.402667a63.658667 63.658667 0 0 1-63.146666-63.488zM614.4 719.701333a63.658667 63.658667 0 1 1 62.805333 63.658667A63.317333 63.317333 0 0 1 614.4 719.701333zM762.197333 638.293333a63.658667 63.658667 0 1 1 63.658667 63.488 63.658667 63.658667 0 0 1-63.658667-63.488zM454.314667 587.264c-193.536-77.141333-143.36-247.125333-12.629334-292.010667 85.333333-28.672 43.861333-127.146667 34.986667-182.613333-17.92-109.226667 77.824-135.168 172.714667-119.466667s224.768 238.933333 138.922666 452.266667c-90.453333 223.232-333.994667 141.824-333.994666 141.824z"  horiz-adv-x="1024" />

    
    <glyph glyph-name="laoshigongzi-01" unicode="&#58940;" d="M890.88 93.866667a81.237333 81.237333 0 0 0-5.290667-29.696 75.776 75.776 0 0 0-15.189333-24.746667 72.362667 72.362667 0 0 0-23.381333-17.066667 71.338667 71.338667 0 0 0-29.184-5.802666H211.456a77.824 77.824 0 0 0-30.037333 5.802666 79.018667 79.018667 0 0 0-24.917334 17.066667 77.824 77.824 0 0 0-17.066666 24.064A72.362667 72.362667 0 0 0 133.12 93.866667V509.781333a75.434667 75.434667 0 0 0 75.946667 75.946667h605.866666a75.434667 75.434667 0 0 0 75.946667-75.946667v-113.664H701.44a73.557333 73.557333 0 0 1-52.906667-21.674666 71.338667 71.338667 0 0 1-22.186666-53.418667 92.16 92.16 0 0 1 9.216-38.4 69.12 69.12 0 0 1 22.186666-25.770667 72.192 72.192 0 0 1 44.544-11.776H890.88V93.866667z m-113.493333 530.261333h-378.88q45.056 23.381333 85.333333 45.056 35.157333 18.090667 69.290667 36.693333c22.698667 12.288 40.618667 21.674667 53.418666 28.330667a99.84 99.84 0 0 0 51.2 14.677333 117.76 117.76 0 0 0 38.912-8.021333 107.690667 107.690667 0 0 0 31.744-24.234667zM663.893333 321.024a37.034667 37.034667 0 0 0 37.546667 37.546667 36.693333 36.693333 0 0 0 37.546667-37.546667 37.888 37.888 0 0 0-10.752-27.136 36.010667 36.010667 0 0 0-26.794667-11.264 35.328 35.328 0 0 0-26.624 11.264 37.376 37.376 0 0 0-10.922667 27.136z"  horiz-adv-x="1024" />

    
    <glyph glyph-name="gonggonghuaji-01" unicode="&#58941;" d="M758.101333 486.4c-65.536 109.056-146.432 176.298667-245.077333 176.298667S330.752 594.773333 267.776 486.4L154.624 290.816C107.349333 179.2 167.253333 89.088 288.085333 89.088h449.877334c120.661333 0 180.736 90.794667 133.290666 201.728 0 0-47.616 86.357333-113.152 195.584zM513.024 288.256a153.6 153.6 0 1 0 153.6 153.6 153.6 153.6 0 0 0-153.6-153.6z m-341.333333 204.8c28.16-17.066667 61.781333 6.314667 68.266666 21.845333a283.306667 283.306667 0 0 0 249.173334 181.76 312.32 312.32 0 0 0 47.274666 0A283.477333 283.477333 0 0 0 785.066667 514.730667c5.973333-15.530667 39.594667-39.424 68.266666-21.845334 34.133333 20.821333 59.050667 96.256 15.701334 158.037334-30.890667 42.666667-148.821333 90.282667-330.069334 91.477333h-53.248c-181.76 0-299.861333-48.128-329.728-90.794667-43.349333-62.805333-17.749333-137.898667 15.701334-158.72z"  horiz-adv-x="1024" />

    
    <glyph glyph-name="xuexiaogailan-01" unicode="&#58942;" d="M833.365333 346.282667h-113.322666a19.114667 19.114667 0 0 0-19.114667 19.114666v106.837334a57.514667 57.514667 0 0 1-21.162667 44.714666l-77.653333 62.634667a182.101333 182.101333 0 0 0-279.381333-202.752v-11.776a19.285333 19.285333 0 0 0-19.114667-19.285333h-113.152a57.514667 57.514667 0 0 1-57.344-57.173334v-231.594666a57.514667 57.514667 0 0 1 57.514667-57.685334h208.042666a38.229333 38.229333 0 0 1 38.4 38.229334v60.928a72.533333 72.533333 0 0 0 72.533334 72.533333 76.8 76.8 0 0 0 76.8-76.8v-56.490667a38.4 38.4 0 0 1 38.4-38.4h208.554666a57.514667 57.514667 0 0 1 57.514667 57.685334V288.597333a57.514667 57.514667 0 0 1-57.514667 57.685334zM517.461333 695.466667a9.557333 9.557333 0 0 0-5.632 8.704V759.466667a9.898667 9.898667 0 0 0 3.584 7.338666 5.461333 5.461333 0 0 1-3.413333 1.536 5.802667 5.802667 0 0 1-5.802667-5.632V691.2c3.925333-1.706667 7.68-3.754667 11.434667-5.802667zM517.461333 762.709333v-67.242666c14.848-5.973333 53.077333-19.626667 68.266667-7.68s40.789333 6.656 58.538667 3.413333a9.386667 9.386667 0 0 1 10.581333 8.362667 4.949333 4.949333 0 0 1 0 2.218666 294.058667 294.058667 0 0 0 3.242667 63.658667 9.557333 9.557333 0 0 1-5.461334 10.069333 116.053333 116.053333 0 0 1-80.042666-4.096 90.282667 90.282667 0 0 0-49.664-2.048 9.728 9.728 0 0 1-7.509334-2.048 5.802667 5.802667 0 0 0 2.730667-4.608zM512 759.466667v-55.466667a9.557333 9.557333 0 0 1 5.632-8.704V762.709333a5.802667 5.802667 0 0 1-2.048 4.437334A9.386667 9.386667 0 0 1 512 759.466667zM512 759.466667v-55.466667a9.557333 9.557333 0 0 1 5.632-8.704V762.709333a5.802667 5.802667 0 0 1-2.048 4.437334A9.386667 9.386667 0 0 1 512 759.466667zM459.093333 461.141333a52.736 52.736 0 0 1 105.472 0 52.736 52.736 0 0 1-105.472 0zM601.941333 579.413333a183.808 183.808 0 0 1-85.333333 105.301334v-37.205334zM609.962667 526.165333a181.077333 181.077333 0 0 1-8.021334 53.077334l-85.333333 68.266666v36.522667a102.4 102.4 0 0 1-11.264 5.973333v-41.472l-161.962667-131.584a57.856 57.856 0 0 1-21.162666-44.714666v-95.402667a182.101333 182.101333 0 0 1 287.232 149.333333z m-97.962667-12.288a53.077333 53.077333 0 1 0-52.906667-52.906666 52.906667 52.906667 0 0 0 52.906667 52.906666zM609.962667 526.165333a181.077333 181.077333 0 0 1-8.021334 53.077334l-85.333333 68.266666v36.522667a102.4 102.4 0 0 1-11.264 5.973333v-41.472l-161.962667-131.584a57.856 57.856 0 0 1-21.162666-44.714666v-95.402667a182.101333 182.101333 0 0 1 287.232 149.333333z m-97.962667-12.288a53.077333 53.077333 0 1 0-52.906667-52.906666 52.906667 52.906667 0 0 0 52.906667 52.906666z"  horiz-adv-x="1024" />

    
    <glyph glyph-name="zichaguanli-01" unicode="&#58943;" d="M750.933333-14.677333a14.677333 14.677333 0 0 1 7.509334 1.365333 112.981333 112.981333 0 0 0-21.504-1.365333z m-37.034666 251.221333a34.133333 34.133333 0 1 1 34.133333-34.133333 34.133333 34.133333 0 0 1-34.133333 34.133333zM736.597333 332.8a153.6 153.6 0 1 1 153.6-152.746667 153.6 153.6 0 0 1-153.6 152.746667z m74.581334-243.541333a21.845333 21.845333 0 0 0-12.629334 4.949333l-51.2 49.322667a63.658667 63.658667 0 0 0-34.133333-10.24 68.266667 68.266667 0 1 0 68.266667 68.266666 63.488 63.488 0 0 0-10.069334-34.133333l50.346667-49.152a19.456 19.456 0 0 0 5.12-12.629333 17.066667 17.066667 0 0 0-17.066667-17.066667zM273.066667 642.901333a45.568 45.568 0 0 1 40.277333 40.448V742.4A38.912 38.912 0 0 1 273.066667 783.018667 42.325333 42.325333 0 0 1 231.765333 742.4v-59.392A48.298667 48.298667 0 0 1 273.066667 642.901333z m179.2 0a36.352 36.352 0 0 1 40.448 40.448V742.4a38.229333 38.229333 0 0 1-40.448 40.277333A38.912 38.912 0 0 1 410.965333 742.4v-59.392a41.642667 41.642667 0 0 1 40.448-40.106667z m179.2 0a39.765333 39.765333 0 0 1 40.448 40.448V742.4A39.594667 39.594667 0 0 1 631.466667 783.018667 42.154667 42.154667 0 0 1 590.336 742.4v-59.392A48.128 48.128 0 0 1 631.466667 642.901333z m119.466666-656.213333a17.066667 17.066667 0 0 1 7.509334 1.194667 128.853333 128.853333 0 0 0-21.504-1.194667zM543.573333 179.2a193.877333 193.877333 0 0 0 193.024 192.341333 208.384 208.384 0 0 0 55.637334-7.509333l-1.365334 299.178667A45.397333 45.397333 0 0 1 750.933333 703.488h-40.789333v-40.277333c0-37.888-41.642667-59.392-79.530667-59.392s-79.530667 22.698667-79.530666 59.392v40.277333h-20.138667v-40.277333c0-37.888-41.642667-59.392-79.530667-59.392-60.586667 0-79.530667 41.642667-79.530666 79.530666v20.138667h-20.138667v-20.138667a80.554667 80.554667 0 0 0-82.090667-79.530666 77.312 77.312 0 0 0-78.336 79.530666v20.138667h-17.066666a45.568 45.568 0 0 1-40.448-40.277333V30.72c0-18.944 21.504-45.397333 40.448-45.397333h563.2A194.048 194.048 0 0 0 543.573333 179.2z m-290.133333 305.322667s415.232-1.194667 416.426667 0a38.4 38.4 0 0 0 41.813333-40.277334 39.936 39.936 0 0 0-40.448-40.448H253.269333a37.546667 37.546667 0 0 0-40.448 40.448 39.765333 39.765333 0 0 0 40.448 39.594667z m179.2-397.482667H253.269333a38.570667 38.570667 0 0 0-40.448 40.277333 44.714667 44.714667 0 0 0 40.448 41.813334l179.2-2.56a38.741333 38.741333 0 0 0 40.448-40.448 44.202667 44.202667 0 0 0-40.448-39.765334z m39.082667 159.061333h-218.453334a38.912 38.912 0 0 0-40.448 40.277334 37.546667 37.546667 0 0 0 40.448 40.448h219.648a40.448 40.448 0 0 0 40.277334-40.448 46.762667 46.762667 0 0 0-41.642667-40.96z"  horiz-adv-x="1024" />

    
    <glyph glyph-name="duanxinpingtai-01" unicode="&#58944;" d="M890.88 652.117333l-2.048-1.365333-76.629333-57.002667Q501.418667 360.448 500.906667 360.96L187.733333 598.528 133.12 640v14.677333a50.005333 50.005333 0 0 0 47.104 52.736h663.381333a50.176 50.176 0 0 0 47.274667-52.565333z m0-63.317333v-460.8a50.176 50.176 0 0 0-47.274667-52.736H180.394667A50.176 50.176 0 0 0 133.12 128V575.829333L160.597333 554.666667l313.514667-237.226667a44.885333 44.885333 0 0 1 54.784 0l309.76 232.96L890.88 588.8z"  horiz-adv-x="1024" />

    
    <glyph glyph-name="kaoqinji-01" unicode="&#58945;" d="M703.146667 288.938667a37.034667 37.034667 0 0 0-38.912 38.912A36.181333 36.181333 0 0 0 703.146667 366.933333a38.912 38.912 0 0 0 0-77.824zM791.04 817.152H238.933333a36.864 36.864 0 0 1-37.546666-37.546667v-790.528a36.864 36.864 0 0 1 37.546666-37.546666h552.106667a36.864 36.864 0 0 1 37.546667 37.546666V779.605333a36.864 36.864 0 0 1-37.546667 37.546667zM546.133333 302.762667a31.402667 31.402667 0 1 0 31.402667 31.402666A31.061333 31.061333 0 0 0 546.133333 302.762667zM703.146667 264.533333a62.805333 62.805333 0 0 0-62.634667 62.634667 62.122667 62.122667 0 0 0 62.634667 62.805333 62.805333 62.805333 0 1 0 0-125.44z m62.805333 175.616H264.021333v126.122667h501.930667z m0 187.733334H264.021333V754.517333h501.930667z"  horiz-adv-x="1024" />

    
    <glyph glyph-name="jichushuju-01" unicode="&#58946;" d="M867.84 740.352H153.6a18.773333 18.773333 0 0 1 0-37.376h30.378667V274.773333a46.592 46.592 0 0 1 46.592-46.592h201.728l-58.026667-106.837333a20.48 20.48 0 0 1 9.386667-30.208 28.501333 28.501333 0 0 1 35.498666 8.192l64.682667 119.466667a18.602667 18.602667 0 0 1 3.072 9.557333h47.274667a20.650667 20.650667 0 0 1 3.242666-9.557333l64.682667-119.466667a28.330667 28.330667 0 0 1 35.328-8.192 20.48 20.48 0 0 1 9.386667 30.208l-57.856 106.837333H790.186667a46.592 46.592 0 0 1 46.08 46.421334v428.373333h31.061333a18.773333 18.773333 0 1 1 0 37.376z m-106.325333-170.666667l-170.666667-148.650666a44.714667 44.714667 0 0 0-51.2-5.461334l-111.274667 61.610667a6.485333 6.485333 0 0 1-7.850666-1.024l-107.861334-114.005333a27.477333 27.477333 0 0 0-19.968-8.533334 26.794667 26.794667 0 0 0-18.944 7.68A27.477333 27.477333 0 0 0 273.066667 401.066667l116.736 123.221333A45.056 45.056 0 0 0 443.733333 532.48l112.64-63.146667a6.144 6.144 0 0 1 6.826667 1.706667l161.621333 140.8a26.794667 26.794667 0 0 0 19.968 6.826667 27.477333 27.477333 0 0 0 16.213334-48.128z"  horiz-adv-x="1024" />

    
    <glyph glyph-name="jiaofeixiangqing-01" unicode="&#58947;" d="M819.2 778.752h-153.6a38.570667 38.570667 0 0 1-38.570667 38.4h-230.4A38.570667 38.570667 0 0 1 358.4 778.752h-153.6a56.832 56.832 0 0 1-57.856-57.685333V8.533333A56.661333 56.661333 0 0 1 204.8-48.469333h614.4A56.661333 56.661333 0 0 1 877.568 8.533333V721.066667A56.832 56.832 0 0 1 819.2 778.752z m-134.144-480.938667a19.285333 19.285333 0 0 0 0-38.570666h-153.6v-153.6a19.285333 19.285333 0 0 0-38.570667 0v153.6h-153.6a19.285333 19.285333 0 1 0 0 38.570666h153.6v115.370667h-153.6a19.285333 19.285333 0 0 0 0 38.570667h107.690667l-90.453333 90.282666a19.114667 19.114667 0 0 0 26.965333 26.965334L500.394667 452.266667h23.210666l117.248 117.248a19.114667 19.114667 0 1 0 26.965334-26.965334L577.365333 452.266667h107.690667a19.285333 19.285333 0 1 0 0-38.570667h-153.6v-115.370667z"  horiz-adv-x="1024" />

    
    <glyph glyph-name="kechengguanli-01" unicode="&#58948;" d="M361.813333 398.848h-84.48a30.208 30.208 0 1 1 0-60.416h84.48a30.208 30.208 0 0 1 0 60.416z m193.194667 0h-85.333333a30.208 30.208 0 1 1 0-60.416h85.333333a30.208 30.208 0 0 1 0 60.416z m108.714667-60.416h85.333333a30.208 30.208 0 0 1 0 60.416h-85.333333a30.208 30.208 0 1 1 0-60.416z m-301.909334-102.4h-84.48a30.208 30.208 0 1 1 0-60.245333h84.48a30.208 30.208 0 1 1 0 60.245333z m193.194667 0h-85.333333a30.208 30.208 0 1 1 0-60.245333h85.333333a30.208 30.208 0 1 1 0 60.245333zM818.176 694.784H750.933333a59.904 59.904 0 0 1-119.466666 0H391.168a59.904 59.904 0 0 1-119.466667 0H204.8A72.362667 72.362667 0 0 1 133.12 622.933333v-493.226666a72.362667 72.362667 0 0 1 71.68-72.533334h614.4a72.362667 72.362667 0 0 1 72.192 72.192V622.933333a73.045333 73.045333 0 0 1-72.704 72.192z m-138.410667-5.973333a11.605333 11.605333 0 0 0 8.533334 11.434666h3.072a5.802667 5.802667 0 0 0 2.901333 0 11.605333 11.605333 0 0 0 8.362667-11.434666v-36.181334a11.776 11.776 0 0 0-8.362667-11.434666h-2.901333a6.485333 6.485333 0 0 0-3.072 0 11.776 11.776 0 0 0-8.533334 11.434666z m-360.789333 0a11.605333 11.605333 0 0 0 8.362667 11.434666h2.901333a6.485333 6.485333 0 0 0 3.072 0 11.776 11.776 0 0 0 8.533333-11.434666v-36.181334a11.946667 11.946667 0 0 0-8.533333-11.434666h-3.072a5.802667 5.802667 0 0 0-2.901333 0 11.776 11.776 0 0 0-8.362667 11.434666z m523.264-559.445334a24.234667 24.234667 0 0 0-24.064-24.064H204.8a24.064 24.064 0 0 0-24.064 24.064V502.272h661.504z m0 421.034667H180.565333V622.933333A24.064 24.064 0 0 0 204.8 646.656h66.56a59.904 59.904 0 0 1 119.466667 0H631.466667a59.904 59.904 0 0 1 119.466666 0h66.56A24.064 24.064 0 0 0 841.557333 622.933333v-72.192z"  horiz-adv-x="1024" />

    
    <glyph glyph-name="zhiyeshengya-01" unicode="&#58949;" d="M893.44 570.538667v-176.128H135.509333V570.538667a56.490667 56.490667 0 0 0 20.309334 46.933333 68.266667 68.266667 0 0 0 51.2 17.066667H358.4v76.970666a49.322667 49.322667 0 0 0 10.069333 29.354667A36.522667 36.522667 0 0 0 392.533333 752.64h248.32a36.522667 36.522667 0 0 0 24.746667-11.776 48.128 48.128 0 0 0 10.069333-29.354667v-76.288h146.602667a102.4 102.4 0 0 0 51.2-17.066666 56.32 56.32 0 0 0 19.968-47.616z m0-217.258667v-211.456a77.141333 77.141333 0 0 0-20.138667-52.736 68.266667 68.266667 0 0 0-51.2-17.066667H206.336a101.376 101.376 0 0 0-51.2 17.066667 94.378667 94.378667 0 0 0-20.309333 52.736V353.28h283.648v-70.485333c0-5.802667 5.12-11.776 5.12-17.066667 5.12-5.973333 10.069333-5.973333 20.138666-5.973333h136.533334a26.794667 26.794667 0 0 1 20.138666 4.778666c5.12 5.802667 10.069333 11.776 5.12 17.066667v71.68zM408.405333 646.826667h217.258667v58.88H408.405333z m161.621334-293.546667v-58.709333h-111.104V353.28z"  horiz-adv-x="1024" />

    
    <glyph glyph-name="paikeguanli-01" unicode="&#58950;" d="M295.424 289.962667a27.136 27.136 0 0 1 0-54.272h297.813333a27.136 27.136 0 0 1 0 54.272z m138.410667 144.213333a27.136 27.136 0 1 1 0-54.101333h297.642666a27.136 27.136 0 1 1 0 54.101333z m267.605333-144.213333a27.136 27.136 0 0 1-26.965333-27.136v-27.136a26.965333 26.965333 0 0 1 26.965333-26.965334h27.136a26.965333 26.965333 0 0 1 26.965333 26.965334V262.826667a27.136 27.136 0 0 1-26.965333 27.136zM295.424 452.266667a26.965333 26.965333 0 0 1-26.965333-26.965334v-27.136a27.136 27.136 0 0 1 26.965333-27.136h27.136a27.136 27.136 0 0 1 26.965333 27.136v27.136A26.965333 26.965333 0 0 1 322.56 452.266667z m595.456 81.237333v-351.914667a81.237333 81.237333 0 0 0-81.066667-81.237333h-595.626666a81.237333 81.237333 0 0 0-81.066667 81.237333V533.504z m-189.44 162.474667v26.965333a27.136 27.136 0 1 0 54.101333 0v-26.965333h54.272a81.237333 81.237333 0 0 0 81.066667-81.237334v-27.136H133.12v27.136a81.237333 81.237333 0 0 0 81.066667 81.237334h54.272v26.965333a27.136 27.136 0 1 0 54.101333 0v-26.965333z"  horiz-adv-x="1024" />

    
    <glyph glyph-name="tiaodaikeguanli-01" unicode="&#58951;" d="M806.912 47.445333H214.186667A81.066667 81.066667 0 0 0 133.12 128V617.130667a81.066667 81.066667 0 0 0 81.066667 81.066666h592.725333A81.066667 81.066667 0 0 0 887.466667 617.130667V128a81.066667 81.066667 0 0 0-80.554667-80.554667z m-592.725333 597.333334A27.306667 27.306667 0 0 1 187.733333 617.130667V128a27.306667 27.306667 0 0 1 27.136-27.136h592.042667A27.306667 27.306667 0 0 1 834.048 128V617.130667a27.306667 27.306667 0 0 1-27.136 27.136zM171.690667 543.744h696.149333v-54.101333H171.690667z m175.957333 23.893333a26.794667 26.794667 0 0 0-26.965333 26.965334v128.341333a26.965333 26.965333 0 1 0 53.930666 0v-128.341333a26.965333 26.965333 0 0 0-26.965333-26.965334z m324.266667 0a26.965333 26.965333 0 0 0-26.965334 26.965334v128.341333a26.965333 26.965333 0 1 0 53.930667 0v-128.341333a26.965333 26.965333 0 0 0-27.818667-26.965334zM698.368 332.8H320.853333a27.136 27.136 0 0 0 0 54.101333h295.082667L575.146667 416.426667a26.965333 26.965333 0 1 0 32.085333 43.52l107.178667-78.848a26.965333 26.965333 0 0 0-16.042667-48.298667zM428.202667 148.992a26.624 26.624 0 0 0-16.042667 5.290667l-107.178667 78.848A26.965333 26.965333 0 0 0 320.853333 281.6h377.514667a27.136 27.136 0 1 0 0-54.101333H403.285333L443.733333 197.802667a26.965333 26.965333 0 0 0-15.872-48.810667z"  horiz-adv-x="1024" />

    
    <glyph glyph-name="xiaoyuanzixun-01" unicode="&#58952;" d="M230.0416 814.08h534.4256c44.4928 0 80.896-32.256 80.896-71.68v-448l-88.4224 15.36-3.4816 35.328V725.248H237.0048v-644.608H496.64l35.84-79.872H230.4c-44.4928 0-80.896 32.256-80.896 71.68V742.4c-0.3584 39.68 36.0448 71.68 80.5376 71.68z m76.8-398.336v-55.296h186.0608V416z m0 112.128v-55.296h186.0608V528.128z m0 107.52v-55.296h372.6336V635.648z m294.0416-174.08l-21.8624-241.152-15.0528 10.752-38.7072-17.92-6.912-23.552L609.28-13.056l5.12-70.144 213.1968 2.048 2.8672 77.824 58.9312 206.336-12.1344 27.136-49.664 8.704-16.1792-11.776-8.0896 15.872-43.9296 7.68-15.0016-13.312-8.6528 16.896-39.8848 6.656-20.224 204.8-74.5472-4.096zM391.8336 781.056v-22.528h211.456v22.528z"  horiz-adv-x="1024" />

    
    <glyph glyph-name="xueshengkaoqin-01" unicode="&#58953;" d="M712.021333 616.277333a36.864 36.864 0 0 1 36.693334 36.864V745.642667a36.693333 36.693333 0 0 1-73.386667 1.365333v-93.866667a36.864 36.864 0 0 1 36.693333-36.864m-392.533333 0a36.864 36.864 0 0 1 36.693333 36.864V745.642667a36.693333 36.693333 0 0 1-73.386666 1.365333v-93.866667a36.864 36.864 0 0 1 36.693333-36.864m535.381333 73.557334H785.066667v-36.693334a73.557333 73.557333 0 0 0-147.114667 0v36.693334H392.533333v-36.693334a73.557333 73.557333 0 0 0-146.944 0v36.693334h-69.632a36.522667 36.522667 0 0 1-36.693333-36.864v-594.432a36.693333 36.693333 0 0 1 36.693333-36.864H853.333333a36.864 36.864 0 0 1 36.864 36.864V653.312a36.522667 36.522667 0 0 1-36.693333 36.522667M819.2 102.4a9.216 9.216 0 0 0-9.216-9.216H219.648a9.216 9.216 0 0 0-9.045333 9.216V502.613333a9.045333 9.045333 0 0 0 9.045333 9.045334H810.666667a9.216 9.216 0 0 0 9.216-9.045334zM319.317333 373.077333A36.181333 36.181333 0 0 1 349.866667 332.8h321.365333a36.010667 36.010667 0 0 1 11.434667 70.826667H360.277333a36.181333 36.181333 0 0 1-40.96-30.549334m0-131.242666a36.010667 36.010667 0 0 1 30.549334-40.96h178.005333a36.181333 36.181333 0 0 1 10.581333 71.509333H360.277333a36.181333 36.181333 0 0 1-40.96-30.378667"  horiz-adv-x="1024" />

    
    <glyph glyph-name="liebiao" unicode="&#58887;" d="M402.9 796.7H156.1c-37.2 0-67.7-30.5-67.7-67.7v-201.7c0-37.2 30.4-67.7 67.7-67.7h246.8c37.2 0 67.7 30.4 67.7 67.7V729c-0.1 37.2-30.5 67.7-67.7 67.7zM402.9 311.1H156.1c-37.2 0-67.7-30.5-67.7-67.7v-201.7c0-37.2 30.4-67.7 67.7-67.7h246.8c37.2 0 67.7 30.4 67.7 67.7V243.4c-0.1 37.2-30.5 67.7-67.7 67.7zM571.4 727.7h334.4c19 0 34.5 15.5 34.5 34.5s-15.5 34.5-34.5 34.5H571.4c-19 0-34.5-15.5-34.5-34.5s15.5-34.5 34.5-34.5zM905.7 547.2H571.4c-19 0-34.5-15.5-34.5-34.5s15.5-34.5 34.5-34.5h334.4c19 0 34.5 15.5 34.5 34.5-0.1 19-15.6 34.5-34.6 34.5zM905.7 297.8H571.4c-19 0-34.5-15.5-34.5-34.5s15.5-34.5 34.5-34.5h334.4c19 0 34.5 15.5 34.5 34.5-0.1 19-15.6 34.5-34.6 34.5zM905.7 48.4H571.4c-19 0-34.5-15.5-34.5-34.5s15.5-34.5 34.5-34.5h334.4c19 0 34.5 15.5 34.5 34.5-0.1 18.9-15.6 34.5-34.6 34.5z"  horiz-adv-x="1024" />

    
    <glyph glyph-name="wodekaquan" unicode="&#58907;" d="M412.444 512a21.333 21.333 0 0 1-21.333-21.333v-213.334a21.333 21.333 0 0 1 42.667 0V490.667A21.333 21.333 0 0 1 412.444 512zM512 896A512 512 0 0 1 0 384a512 512 0 0 1 512-512 512 512 0 0 1 512 512A512 512 0 0 1 512 896z m270.222-448a64 64 0 0 1 0-128v-105.813a43.52 43.52 0 0 0-43.52-43.52H285.298a43.52 43.52 0 0 0-43.52 43.52V320a64 64 0 0 1 0 128V553.813a43.52 43.52 0 0 0 43.52 43.52h453.404a43.52 43.52 0 0 0 43.52-43.52z"  horiz-adv-x="1024" />

    
    <glyph glyph-name="zonghebaobiao-01" unicode="&#58926;" d="M877.568 533.504l-355.669333-204.8a20.48 20.48 0 0 0-19.797334 0l-355.669333 204.8a19.968 19.968 0 0 0-7.168 27.136 21.162667 21.162667 0 0 0 7.168 7.338667L502.101333 771.925333a20.138667 20.138667 0 0 0 19.626667 0l355.669333-204.8a19.797333 19.797333 0 0 0 7.338667-27.136 20.138667 20.138667 0 0 0-7.338667-7.338666zM502.442667 236.373333L182.613333 415.232a20.138667 20.138667 0 0 1-21.333333-1.194667l-19.968-14.677333A19.797333 19.797333 0 0 1 136.533333 371.712a20.821333 20.821333 0 0 1 6.144-5.461333l358.4-205.994667a20.48 20.48 0 0 1 19.797334 0l358.4 205.824a19.797333 19.797333 0 0 1 8.192 26.965333 19.968 19.968 0 0 1-5.632 6.314667l-18.432 13.141333a19.797333 19.797333 0 0 1-21.162667 1.194667L521.728 236.373333a20.309333 20.309333 0 0 0-19.285333 0zM502.442667 70.656L182.613333 249.344a19.456 19.456 0 0 1-21.333333-1.877333l-19.968-14.506667A19.797333 19.797333 0 0 1 136.533333 205.994667a17.066667 17.066667 0 0 1 6.144-5.632l358.4-205.994667a20.48 20.48 0 0 1 19.797334 0l358.4 205.824a19.797333 19.797333 0 0 1 8.192 27.136 17.066667 17.066667 0 0 1-5.632 6.144L864.085333 247.466667a19.797333 19.797333 0 0 1-21.162666 0L521.728 70.485333a19.797333 19.797333 0 0 0-19.285333 0z"  horiz-adv-x="1024" />

    
    <glyph glyph-name="shujuxiazai-01" unicode="&#58928;" d="M836.266667 157.866667H187.733333a54.101333 54.101333 0 0 1 0-108.032h648.533334a54.101333 54.101333 0 0 1 0 108.032zM765.44 537.6H648.533333V757.248a51.2 51.2 0 0 1-51.2 51.2h-169.472a51.2 51.2 0 0 1-51.2-51.2V537.6h-117.418666a26.112 26.112 0 0 1-19.114667-43.690667L493.226667 220.16a26.112 26.112 0 0 1 38.229333 0L785.066667 494.08A25.941333 25.941333 0 0 1 765.44 537.6z"  horiz-adv-x="1024" />

    
    <glyph glyph-name="xinxifabu" unicode="&#58884;" d="M942.72-65.28L78.72-64V769.28H544v-128H206.72V64l608-1.28V385.28h128v-450.56zM486.976 420.992l352.064 352.064 79.232-79.168L566.144 341.76zM966.4 541.44h-112V709.12h-167.68V821.12h279.68v-279.68z"  horiz-adv-x="1024" />

    
    <glyph glyph-name="kefu" unicode="&#58971;" d="M709.677645 221.959578a56.656871 56.656871 0 0 0-56.656871-57.365082 57.365082 57.365082 0 1 0 57.365082 57.365082z m-283.284356 0a63.73898 63.73898 0 1 0-63.73898 63.73898 70.821089 70.821089 0 0 0 60.906137-63.73898z m-63.73898 292.491097a381.725669 381.725669 0 0 1 194.049784-159.34745A595.605358 595.605358 0 0 1 658.686461 328.899422a260.621607 260.621607 0 0 0 177.760933-82.860674 216.004321 216.004321 0 0 0-6.373898-63.73898 363.312186 363.312186 0 0 0-266.995505-163.596715 49.574762 49.574762 0 0 1-44.617286 19.121694c-31.86949 0-50.991184-12.747796-50.991184-38.243388s25.495592-38.243388 50.991184-38.243388 50.991184 12.747796 50.991184 31.86949a538.240276 538.240276 0 0 1 108.356266 25.495592 439.090751 439.090751 0 0 1 126.769749 82.860674l19.121694 19.121694a305.947104 305.947104 0 0 0-305.238893-212.463267A311.612791 311.612791 0 0 0 194.808329 241.081272v70.821089a245.040968 245.040968 0 0 1 145.891443 141.642178z m575.775453-191.21694v31.86949a458.920656 458.920656 0 0 1-114.730164 324.360587A489.373724 489.373724 0 0 1 690.555951 768.698384 170.678824 170.678824 0 0 1 512.086807 895.468134C417.186548 889.094236 336.450507 831.729154 327.951976 762.324486A378.892826 378.892826 0 0 1 194.808329 673.089914 448.297493 448.297493 0 0 1 80.078165 348.729327v-38.243388A89.234572 89.234572 0 0 1 53.166151 221.959578a81.444252 81.444252 0 0 1 63.73898-63.73898 119.68764 119.68764 0 0 1 50.991184-12.747796 342.065859 342.065859 0 0 1 343.482281-273.369403 342.065859 342.065859 0 0 1 343.482281 273.369403h6.373898a107.648055 107.648055 0 0 1 63.73898 19.121694 97.024892 97.024892 0 0 1 12.747796 158.639239z"  horiz-adv-x="1024" />

    
    <glyph glyph-name="daifahuo" unicode="&#59073;" d="M469.256456 756.391592v-371.776577l77.7994 28.290691a41.206006 41.206006 0 0 0 27.675676 0l82.104504-29.213214V756.391592h375.466667a93.78979 93.78979 0 0 0 93.789789-93.78979v-696.504505a93.78979 93.78979 0 0 0-93.789789-93.789789H93.78979A93.78979 93.78979 0 0 0 0-33.902703V662.601802a93.78979 93.78979 0 0 0 93.78979 93.78979h375.466666zM187.272072 616.783183a46.433634 46.433634 0 0 1 0-92.252252h94.712312a46.433634 46.433634 0 0 1 0 92.252252zM140.223423 896h845.645646a46.433634 46.433634 0 0 0 0-92.252252H140.223423a46.433634 46.433634 0 0 0 0 92.252252z"  horiz-adv-x="1126" />

    
    <glyph glyph-name="daishouhuo" unicode="&#59074;" d="M1165.809914 25.520866h-50.329521a178.527357 178.527357 0 0 1-354.522411 0H506.461537a178.527357 178.527357 0 0 1-354.522411 0H50.647008A50.962597 50.962597 0 0 0 0.00095 76.8V844.720866A50.962597 50.962597 0 0 0 50.647008 896h710.627512a50.962597 50.962597 0 0 0 50.646059-51.279134v-153.520866h176.944667c37.03493 0 52.861824-23.107264 75.969088-51.279134l113.004019-203.850387a221.576507 221.576507 0 0 0 38.61762-103.507882v-256.079135A51.279134 51.279134 0 0 0 1202.844845 41.347759a50.012983 50.012983 0 0 0-35.768779-14.87728z m-53.811437 350.723956l-106.356724 200.36847s-11.395363 12.028439-19.30881 12.028439h-123.766306v-256.079134h269.373725a94.96136 94.96136 0 0 1-19.625347 43.365687z m-783.114683-248.482225a126.615147 126.615147 0 1 0-126.615147-129.463988 126.615147 126.615147 0 0 0 126.615147 126.615147z m609.651932 0a126.615147 126.615147 0 1 0-126.615147-129.463988 126.615147 126.615147 0 0 0 126.615147 126.615147z"  horiz-adv-x="1216" />

    
    <glyph glyph-name="ziyuan138" unicode="&#59106;" d="M873.001311 828.081009a86.891923 86.891923 0 0 0 26.985069-33.191635l65.034017 65.034017a20.508653 20.508653 0 0 1 0 28.874024A20.508653 20.508653 0 0 1 934.79712 889.876818l-61.795809-61.795809a86.082371 86.082371 0 0 1-53.970139 18.079996H139.277274A86.891923 86.891923 0 0 1 52.38535 760.348485v-801.456562a86.891923 86.891923 0 0 1 86.891924-86.891923h681.103151a86.891923 86.891923 0 0 1 86.891924 86.891923V760.348485a86.352222 86.352222 0 0 1-7.82567 35.620291l-157.322955-158.672208a21.318205 21.318205 0 0 0-29.953427 29.953427zM681.137467-16.281813000000056H199.184128a25.635816 25.635816 0 0 0 0 51.001782H681.137467a25.635816 25.635816 0 0 0 0-51.001782z m3.238209 263.913979H181.913683a26.985069 26.985069 0 1 0 0 53.970139h502.461993a26.985069 26.985069 0 1 0 0-53.970139z m26.985069 314.106208a26.985069 26.985069 0 0 0-26.985069-26.985069H181.913683a26.985069 26.985069 0 1 0 0 53.970138h502.461993a26.985069 26.985069 0 0 0 26.715218-25.635816z"  horiz-adv-x="1024" />

    
    <glyph glyph-name="ziyuan192" unicode="&#59156;" d="M855.139681 114.810876a130.152992 130.152992 0 0 1 26.507738 210.206359 132.538688 132.538688 0 0 1-93.042159 35.255291h-1.590465a132.538688 132.538688 0 0 0 18.555417-23.856963 119.814974 119.814974 0 0 0 5.831702-10.868173 98.608784 98.608784 0 0 0 79.523213-115.308658 99.669093 99.669093 0 0 0-98.343707-79.523213h-5.03647l10.868173-6.361857h-1.325387c5.831702-3.446006 11.928482-7.687244 17.495107-11.663405a100.464325 100.464325 0 0 0 12.458636-9.542785 252.883817 252.883817 0 0 0 23.326809-21.471268 185.554163 185.554163 0 0 0 128.562528-176.541532 17.495107 17.495107 0 0 1 15.374487-15.374488 17.230029 17.230029 0 0 1 18.555417 15.374488 220.544377 220.544377 0 0 1-157.721039 209.676204zM896.756829-93.009786a238.569638 238.569638 0 0 1-87.210457 183.433544l-11.398327 8.747553a246.52196 246.52196 0 0 1-42.41238 24.652196 175.7463 175.7463 0 0 1-29.158511 10.868173 111.862653 111.862653 0 0 1 12.723714 7.952321 145.527479 145.527479 0 0 1 43.737767 192.446175 139.960854 139.960854 0 0 1-24.652196 30.748975 148.973485 148.973485 0 0 1-253.413972-102.850022 146.852866 146.852866 0 0 1 76.872439-130.152991 238.569638 238.569638 0 0 1-168.854288-226.376079 18.555416 18.555416 0 0 1 18.290339-18.555416h447.185533a18.555416 18.555416 0 0 1 18.290339 19.085571zM372.698857-107.589042a261.63137 261.63137 0 0 0 127.23714 222.399918h-174.420913a23.856964 23.856964 0 1 0 0 47.448851h201.458806a160.63689 160.63689 0 0 0-53.015476 120.875283 162.757509 162.757509 0 0 0 28.628357 88.535844h-177.071687a23.856964 23.856964 0 1 0 0 47.44885h227.436388a162.492431 162.492431 0 0 0 166.998747 0h71.835969a23.591886 23.591886 0 0 0 22.001422-32.604517A144.997325 144.997325 0 0 0 885.888657 350.464664a142.346551 142.346551 0 0 0 24.917273-31.014053V804.542209A91.451695 91.451695 0 0 1 818.293926 895.993903h-715.708915A91.451695 91.451695 0 0 1 11.133316 804.542209v-841.090514a91.451695 91.451695 0 0 1 91.451695-91.451695h289.994649a20.410958 20.410958 0 0 0-19.880803 20.410958zM325.515084 670.943211h466.271104a23.856964 23.856964 0 0 0 0-47.44885H325.515084a23.856964 23.856964 0 1 0 0 47.44885z m-113.983272-556.662489H124.586433a23.856964 23.856964 0 1 0 0 47.44885h86.945379a23.856964 23.856964 0 1 0 0-47.44885z m0 256.859977H124.586433a23.856964 23.856964 0 1 0 0 47.44885h86.945379a23.856964 23.856964 0 1 0 0-47.44885z m0 251.823507H124.586433a23.856964 23.856964 0 0 0 0 47.44885h86.945379a23.856964 23.856964 0 0 0 0-47.44885z"  horiz-adv-x="1024" />

    
    <glyph glyph-name="ziyuan146" unicode="&#59114;" d="M769.383672 682.298056a42.298056 42.298056 0 0 1 42.850972 42.850972V853.149028a42.850972 42.850972 0 0 1-85.425486 0v-128a42.298056 42.298056 0 0 1 42.574514-42.850972zM256.554298 682.298056a42.298056 42.298056 0 0 1 42.850972 42.850972V853.149028a42.850972 42.850972 0 0 1-85.425486 0v-128a42.298056 42.298056 0 0 1 42.574514-42.850972zM923.094255 810.574514h-34.00432a34.280778 34.280778 0 0 1-34.280777-34.280777v-49.485962A87.084233 87.084233 0 0 0 774.083456 638.617711a85.701944 85.701944 0 0 0-91.50756 85.425486V777.12311a34.280778 34.280778 0 0 1-32.898488 34.280778h-273.693304a34.280778 34.280778 0 0 1-34.00432-34.280778v-49.485961a87.084233 87.084233 0 0 0-79.61987-88.190065 85.701944 85.701944 0 0 0-91.50756 85.701944V777.952484A34.280778 34.280778 0 0 1 136.848035 813.062635H102.567257A102.842333 102.842333 0 0 1 0.001382 709.667387v-735.101512A102.842333 102.842333 0 0 1 102.567257-126.894168h820.526998a102.842333 102.842333 0 0 1 102.565875 102.565874V709.667387a102.565875 102.565875 0 0 1-102.565875 100.907127zM246.601814 323.455724L432.105054 508.958963l126.617711-126.61771 143.758099 143.758099h-33.727862A32.069114 32.069114 0 0 0 635.854514 558.168467a32.069114 32.069114 0 0 0 32.069115 32.069114h108.924406a32.069114 32.069114 0 0 0 32.069114-32.069114v-115.559396a32.069114 32.069114 0 0 0-32.069114-32.069114 32.069114 32.069114 0 0 0-32.069115 32.069114v35.386609l-185.779698-185.779697-126.61771 126.61771-140.440605-140.440604a32.069114 32.069114 0 1 0-45.339093 45.339092z m644.699784-362.436286a31.516199 31.516199 0 0 0-33.451404-27.645788H152.053218a27.645788 27.645788 0 1 0 0 57.50324h114.730022a24.328294 24.328294 0 0 0 0 3.87041v113.347732a31.516199 31.516199 0 0 0 33.451404 27.645789 31.516199 31.516199 0 0 0 33.451404-27.645789v-113.347732a24.604752 24.604752 0 0 0 0-3.87041h82.937365a24.328294 24.328294 0 0 0 0 3.87041v264.017279a31.516199 31.516199 0 0 0 33.451403 27.645788 31.516199 31.516199 0 0 0 33.451404-27.645788v-264.846652a24.051836 24.051836 0 0 0 0-3.870411h79.343413a24.051836 24.051836 0 0 0 0 3.870411v201.814254a31.516199 31.516199 0 0 0 33.451404 27.645789 31.516199 31.516199 0 0 0 33.451404-27.645789v-202.090712a24.328294 24.328294 0 0 0 0-3.870411H718.791879a24.328294 24.328294 0 0 0 0 3.870411v331.74946a31.516199 31.516199 0 0 0 33.451404 27.645788 31.516199 31.516199 0 0 0 33.451404-27.645788v-331.74946a24.051836 24.051836 0 0 0 0-3.870411H857.020821a31.516199 31.516199 0 0 0 33.451404-27.645788z"  horiz-adv-x="1025" />

    
    <glyph glyph-name="lvyoumenpiao" unicode="&#58995;" d="M1600.195719 504.562691V739.425076A156.574924 156.574924 0 0 1 1444.664628 896H156.574924A156.574924 156.574924 0 0 1 0 739.425076v-234.862385a104.383282 104.383282 0 0 0 97.076453-104.383282 104.383282 104.383282 0 0 0-97.076453-104.383283v-267.221202a156.574924 156.574924 0 0 1 156.574924-156.574924h1288.089704a156.574924 156.574924 0 0 1 156.574923 156.574924V305.190622a104.383282 104.383282 0 1 0 0 200.415902z m-1235.898064-12.525994a104.383282 104.383282 0 1 0 104.383283 104.383283 104.383282 104.383282 0 0 0-104.383283-104.383283z m695.192661-371.604485H510.434251s-97.076453 0-36.534149 66.805301L757.82263 478.466871a41.753313 41.753313 0 0 0 68.892966 0 1125.251784 1125.251784 0 0 0 80.375128-134.654435h84.550458l116.909277-147.180428s55.32314-72.024465-49.060143-76.199796zM1294.352701 582.850153v-28.183486h-88.72579v-31.314985h88.72579v-28.183486h-88.72579v-73.068298h-52.191641v73.068298h-88.72579v31.314984h88.72579v31.314985h-88.72579V582.850153h76.199796l-104.383282 168.057085h61.586136l48.01631-86.638125c15.657492-31.314985 22.964322-43.840979 36.534149-69.936799 13.569827 25.051988 21.920489 39.665647 36.534149 69.936799l46.972477 86.638125h60.542304L1219.196738 582.850153z"  horiz-adv-x="1601" />

    
    <glyph glyph-name="zhaogongshichang" unicode="&#59048;" d="M512.232853 784.417537a400.729555 400.729555 0 1 1 400.729555-400.451464A400.729555 400.729555 0 0 1 512.232853 784.417537z m-128.200087-241.939426c0 83.427388 105.396601 116.798344 105.3966 116.798343a62.848633 62.848633 0 0 0 45.606973 0S639.876757 619.509399 639.876757 542.756202c0-11.401743 16.963569-8.62083 31.424316-48.387885H352.60845C361.785462 534.135372 384.032766 531.354459 384.032766 542.756202z m353.175944-375.97943c0-34.205229-91.213945-62.570541-91.213945-62.570542l-27.809129 4.449461v-1.390456h-14.182656v3.615187a830.658696 830.658696 0 0 1-91.770127 7.786556 826.765418 826.765418 0 0 1-91.213945-7.786556h-5.561826l-36.986142-5.561826s-91.213945 27.809129-91.213945 62.570541v16.129295c0 31.424316 42.826059 62.570541 91.213945 88.433032 2.780913 0 31.424316-162.405316 31.424316-162.405316h11.123652c0 8.064648-25.584399 166.854777-22.803486 170.191872a381.263165 381.263165 0 0 1 34.205229 16.963569 35.317594 35.317594 0 0 1 16.963569 48.387885 144.607473 144.607473 0 0 0-51.168798 125.419174h228.034861a166.854777 166.854777 0 0 0-51.168798-128.200087c-11.401743-39.767055 8.62083-48.387885 11.401743-48.387885a417.136941 417.136941 0 0 0 39.767055-16.963569c2.502822 0-18.632117-144.05129-22.247303-166.854777h14.182656c2.502822 15.01693 27.809129 161.014859 31.146225 161.01486 48.387885-22.803486 88.433032-54.227802 88.433031-85.374028zM28.075909 421.508398h5.561826a31.980499 31.980499 0 0 1 31.702408 27.809129A452.732627 452.732627 0 0 0 447.437581 830.858783a31.980499 31.980499 0 0 1 27.809129 36.151868V867.844925a32.25859 32.25859 0 0 1-36.70805 27.809129A516.971716 516.971716 0 0 1 1.935327 457.382175 31.980499 31.980499 0 0 1 28.075909 421.508398zM575.915759 831.136874h1.390456a453.28881 453.28881 0 0 0 382.097439-382.653621 31.980499 31.980499 0 0 1 31.146225-27.809129h4.727552a31.980499 31.980499 0 0 1 27.809129 36.151868A517.80599 517.80599 0 0 1 584.258498 893.985507a32.814773 32.814773 0 0 1-37.264234-27.80913 31.980499 31.980499 0 0 1 28.921495-35.039503zM447.437581-62.926637A453.010718 453.010718 0 0 0 65.062051 319.448893a31.980499 31.980499 0 0 1-36.429959 27.809129H28.075909A31.702408 31.702408 0 0 1 0.26678 311.662336v-1.946639a517.80599 517.80599 0 0 1 438.27188-436.325241h4.44946a31.980499 31.980499 0 0 1 4.449461 63.682907zM996.111705 346.145657a31.980499 31.980499 0 0 1-36.986142-25.862491 453.844992 453.844992 0 0 0-380.985074-383.487894 31.980499 31.980499 0 0 1-27.809129-36.151869 32.25859 32.25859 0 0 1 31.702407-27.809129h4.449461A518.362173 518.362173 0 0 1 1023.642743 310.27188a31.980499 31.980499 0 0 1-27.531038 35.873777z"  horiz-adv-x="1024" />

    
    <glyph glyph-name="tuikuanshouhou" unicode="&#59067;" d="M842.41 863.972a477.924 477.924 0 0 1 0-955.734 477.924 477.924 0 0 1 0 955.734zM966.429 312.49c22.87 0 41.359-12.345 41.359-27.591s-18.49-27.648-41.359-27.648h-87.38v-93.98c0-19.002-12.403-34.532-27.649-34.532s-27.591 15.36-27.591 34.531v93.98H718.393c-22.87 0-41.358 12.402-41.358 27.649s18.489 27.59 41.358 27.59h105.415v55.012H718.393c-22.87 0-41.358 12.345-41.358 27.648 0 15.246 18.489 27.591 41.358 27.591h105.415v22.016a55.41 55.41 0 0 0-16.27 11.492l-115.2 115.769c-15.758 15.758-19.911 36.978-9.387 47.502 10.525 10.468 31.801 6.258 47.389-9.5l115.256-115.77 1.252-1.25c1.365 1.706 2.844 3.412 4.551 5.005L953.23 599.836c16.1 16.157 38.002 20.537 48.754 9.785 10.752-10.752 6.485-32.597-9.785-48.753L890.368 459.036a60.132 60.132 0 0 0-11.662-9.159 36.978 36.978 0 0 0 0.569-6.485v-20.65h87.21c22.87 0 41.359-12.346 41.359-27.592 0-15.303-18.49-27.648-41.359-27.648h-87.381v-55.011h87.381zM303.218 686.649l1.194-0.569a51.37 51.37 0 0 0 26.624-67.584 537.145 537.145 0 0 1-44.145-215.04 542.151 542.151 0 0 1 46.762-220.843l3.983-3.982a55.182 55.182 0 0 0-77.938-77.995L60.644 299.634a55.182 55.182 0 0 0 77.994 77.938l48.356-48.413a658.965 658.965 0 0 0-4.21 74.24c0 89.486 17.75 175.844 52.736 256.455a51.428 51.428 0 0 0 67.698 26.738z"  horiz-adv-x="1365" />

    
    <glyph glyph-name="ziyuan142" unicode="&#59110;" d="M969.317817 728.378588c0 37.337471 0 74.145332-1.853633 108.040341a538.348073 538.348073 0 0 0-114.130851-18.536333c-148.555469-9.003362-250.505301 38.661495-344.246185 78.117404C405.018878 835.624515 213.035428 790.078097 55.741402 836.418929v-377.081975c0-42.368761-3.442462-84.737523 0-125.78226 11.651409-128.959917 94.535299-224.024825 177.154383-294.727696a1121.183346 1121.183346 0 0 1 280.957848-166.826998 1319.52211 1319.52211 0 0 1 167.886217 89.239204 1337.793638 1337.793638 0 0 1 132.402379 101.420222c67.260409 61.169899 135.050427 139.022498 153.05715 240.97233a189.600207 189.600207 0 0 1 1.588829 24.097233zM352.322731 154.546677a233.557797 233.557797 0 0 1-38.9263 45.281614c189.070597 46.340833 201.516421 114.66046 201.516421 160.471683v52.960952h60.11068v-52.960952c-0.264805-62.758728-23.832428-148.290665-222.700801-205.753297z m374.963537 2.383243a1242.993535 1242.993535 0 0 1-176.624773 84.207913l40.250323 34.159814a1622.458754 1622.458754 0 0 0 177.154383-79.441428zM769.12542 542.220843h-207.871735c-1.853633-19.860357-4.236876-37.86708-6.884924-52.960952h172.387898v-216.345487h-60.905094v162.854926h-244.679597v-160.471683h-57.727437v213.16783h134.520817q2.912852 24.097233 5.5609 52.960952h-180.332041v-34.159814c0-100.890613-9.268167-249.181277-69.908456-346.364624a174.506336 174.506336 0 0 1-50.312904 29.128524C261.229894 282.71218 265.99638 414.58495 265.99638 508.325834v172.123093A2739.405224 2739.405224 0 0 1 687.565555 723.876907l45.811223-46.340833c-47.135247-9.797776-102.214637-18.536333-161.001293-26.480475-1.853633-18.536333-3.707267-38.39669-5.5609-58.786657H769.12542zM323.194207 593.063357h185.363331c0 18.536333 2.383243 36.013447 3.707267 52.960951-62.493923-5.5609-127.106284-9.268167-187.746574-11.651409z"  horiz-adv-x="1024" />

    
    <glyph glyph-name="wochuangjiande1" unicode="&#59116;" d="M834.56 284.16c-51.2 48.64-117.76 84.48-192 104.96 66.56 43.52 110.08 117.76 110.08 202.24C752.64 724.48 645.12 832 512 832S271.36 724.48 271.36 591.36c0-87.04 46.08-163.84 115.2-204.8C268.8 353.28 171.52 273.92 128 168.96c-17.92-43.52 2.56-104.96 43.52-130.56 102.4-64 220.16-99.84 345.6-99.84 20.48 0 43.52 2.56 64 2.56l43.52 140.8 209.92 202.24zM732.16-25.6c48.64 17.92 97.28 40.96 140.8 69.12 35.84 23.04 53.76 71.68 46.08 112.64L732.16-25.6zM652.118 71.417l164.725 164.73 74.22-74.217L726.336-2.8zM614.4-40.96l104.96 30.72L645.12 64zM921.6 220.16l-46.08 46.08c-7.68 7.68-20.48 7.68-28.16 0l-23.04-23.04 74.24-74.24L921.6 192c7.68 7.68 7.68 20.48 0 28.16z"  horiz-adv-x="1024" />

    
    <glyph glyph-name="ziyuan174" unicode="&#59139;" d="M754.663647-123.071348a11.016988 11.016988 0 0 1-2.029445 2.609287 154.237826 154.237826 0 0 0-33.340884 28.992072L714.364666-89.730464h-10.727067l-14.496036-7.537939a22.323896 22.323896 0 0 0-28.992073 9.277463l-7.827859 14.785957a22.323896 22.323896 0 0 0 9.277463 28.992072l14.496036 7.537939v4.05889a153.947905 153.947905 0 0 0-4.05889 41.748585 11.016988 11.016988 0 0 1-7.537939 12.466591l-15.655719 4.928652a22.323896 22.323896 0 0 0-14.785957 28.992073l4.928652 15.94564a22.323896 22.323896 0 0 0 28.992073 14.785957l15.655719-4.928653a11.016988 11.016988 0 0 1 13.046433 6.088336 154.237826 154.237826 0 0 0 26.672706 32.1812V139.88675l-7.537938 14.496036a22.323896 22.323896 0 0 0 9.277463 28.992072l14.785957 7.82786a22.323896 22.323896 0 0 0 28.992072-9.277463l2.319366-7.82786a64.362401 64.362401 0 0 1 2.609286-7.537939c2.319366-5.508494 8.987542-6.088335 15.075878-4.638731a154.237826 154.237826 0 0 0 43.198188 4.05889h2.319366a11.016988 11.016988 0 0 1 8.987542 7.537939l4.928653 15.655719a20.584371 20.584371 0 0 0 0 2.609286 439.519819 439.519819 0 0 1-231.93658 169.603624 282.382786 282.382786 0 1 1-262.958097-1.739524A448.507361 448.507361 0 0 1 47.546999-64.507361v-33.630804a26.962627 26.962627 0 0 1 23.483579-24.063421h682.473386zM831.977386 16.241776m-32.802472-17.353357a37.109853 37.109853 0 1 1 65.604943 34.706715 37.109853 37.109853 0 1 1-65.604943-34.706715ZM725.961495-65.377123l10.727067 5.798414H743.356738a114.228766 114.228766 0 0 1 24.933183-20.584371l1.449603-2.029445a8.11778 8.11778 0 0 0 0-6.378256l-3.479048-11.596829a16.525481 16.525481 0 0 1 11.016987-20.584372l11.88675-3.768969a16.525481 16.525481 0 0 1 20.584371 11.016987l3.479049 11.596829h2.609287a115.96829 115.96829 0 0 1 32.1812 2.899207 8.11778 8.11778 0 0 0 8.697622-4.05889l5.798414-10.727066a16.525481 16.525481 0 0 1 22.323896-6.958098l11.016988 5.798415a16.525481 16.525481 0 0 1 6.958097 22.323895l-5.798414 10.727067a8.11778 8.11778 0 0 0 0 9.567384 114.228766 114.228766 0 0 1 20.584371 24.933182h7.82786l11.596829-3.479048a16.525481 16.525481 0 0 1 20.584371 11.016987l3.768969 11.88675a16.525481 16.525481 0 0 1-11.016987 20.584372l-11.596829 3.479048a8.11778 8.11778 0 0 0-5.798415 6.378256 114.228766 114.228766 0 0 1-2.899207 31.89128 8.11778 8.11778 0 0 0 0 1.449604v3.189127l10.727067 5.798415a16.525481 16.525481 0 0 1 6.958097 22.323896l-5.798414 11.016987a16.525481 16.525481 0 0 1-22.323896 6.958098l-10.727067-5.798415a8.11778 8.11778 0 0 0-9.567384 0 115.96829 115.96829 0 0 1-24.933182 20.584372V105.966025l3.479049 11.596829a16.525481 16.525481 0 0 1-11.016988 20.584371l-11.88675 3.76897a16.525481 16.525481 0 0 1-20.584371-11.016988l-3.479049-11.596829a8.11778 8.11778 0 0 0-6.668176-5.798414h-1.739525a114.228766 114.228766 0 0 1-31.891279-2.899207 8.11778 8.11778 0 0 0-11.016988 3.479048 19.134768 19.134768 0 0 0 0 5.798415l-2.319366 5.798414a16.525481 16.525481 0 0 1-22.323896 6.958098l-11.016987-5.798415a16.525481 16.525481 0 0 1-6.958098-22.323896l5.798415-10.727067v-5.798414a114.228766 114.228766 0 0 1-20.00453-23.773499 8.11778 8.11778 0 0 0-9.857305-4.638732l-11.596829 3.479049a16.525481 16.525481 0 0 1-20.584371-11.016988l-3.76897-11.88675a16.525481 16.525481 0 0 1 11.016988-20.584371l11.596829-3.479049a8.11778 8.11778 0 0 0 5.508494-9.277463 114.228766 114.228766 0 0 1 2.899207-31.021518v-3.768969l-10.727067-5.798414a16.525481 16.525481 0 0 1-6.958097-22.323896l5.798414-11.016988a16.525481 16.525481 0 0 1 29.861835 1.739525z m80.887882 129.014722a53.635334 53.635334 0 1 0-22.323896-72.480181 53.635334 53.635334 0 0 0 22.613817 72.480181z"  horiz-adv-x="1024" />

    
    <glyph glyph-name="ziyuan140" unicode="&#59108;" d="M854.21693-3.412892000000056A194.302873 194.302873 0 1 0 884.435931 30.78229399999998l76.607817-68.125292V804.547761A91.452239 91.452239 0 0 1 869.856588 896h-715.713176A91.452239 91.452239 0 0 1 62.691173 804.547761v-841.095522a91.452239 91.452239 0 0 1 91.452239-91.452239h715.713176a91.18716 91.18716 0 0 1 76.872897 42.412633zM358.784364 708.5891790000001h466.008802a23.857106 23.857106 0 1 0 0-47.449132H358.784364a23.857106 23.857106 0 1 0 0 47.449132z m0-251.825006h459.646907a23.857106 23.857106 0 1 0 0-47.449133H358.784364a23.857106 23.857106 0 0 0 0 47.449133zM264.681336 176.31063900000004a23.857106 23.857106 0 0 0-23.857106-23.857105H186.483044a23.857106 23.857106 0 0 0-23.857106 23.857105 23.857106 23.857106 0 0 0 23.857106 23.857106h54.341186a23.857106 23.857106 0 0 0 23.857106-23.857106z m-23.857106 233.004401H186.483044a23.857106 23.857106 0 0 0 0 47.449133h54.341186a23.857106 23.857106 0 1 0 0-47.449133z m0 251.825007H186.483044a23.857106 23.857106 0 0 0 0 47.449132h54.341186a23.857106 23.857106 0 1 0 0-47.449132z m209.677453-508.686513h-91.717319a23.857106 23.857106 0 0 0 0 47.449132h91.717319a23.857106 23.857106 0 1 0 0-47.449132zM724.328242 141.85037499999999m-156.926741 0a156.926741 156.926741 0 1 1 313.853482 0 156.926741 156.926741 0 1 1-313.853482 0Z"  horiz-adv-x="1024" />

    


  </font>
</defs>
</svg>
